<mxfile host="app.diagrams.net" agent="Mozilla/5.0 (Windows NT 10.0; Win64; x64) AppleWebKit/537.36 (KHTML, like Gecko) Chrome/138.0.0.0 Safari/537.36 OPR/122.0.0.0" version="28.2.5">
  <diagram name="Page-1" id="mHHfgm9PRNlMeIbfjvwF">
    <mxGraphModel dx="1000" dy="539" grid="1" gridSize="10" guides="1" tooltips="1" connect="1" arrows="1" fold="1" page="1" pageScale="1" pageWidth="850" pageHeight="1100" math="0" shadow="0">
      <root>
        <mxCell id="0" />
        <mxCell id="1" parent="0" />
        <mxCell id="gxNNFm00aCZRIwY2QyJQ-1" value="serverless text to speech&amp;nbsp;" style="text;html=1;resizable=0;points=[];autosize=1;align=left;verticalAlign=top;spacingTop=-4;fontSize=30;fontStyle=1" parent="1" vertex="1">
          <mxGeometry x="56.5" y="64.5" width="360" height="40" as="geometry" />
        </mxCell>
        <mxCell id="gxNNFm00aCZRIwY2QyJQ-2" value="" style="line;strokeWidth=2;html=1;fontSize=14;" parent="1" vertex="1">
          <mxGeometry x="55" y="110" width="1060" height="10" as="geometry" />
        </mxCell>
        <mxCell id="gxNNFm00aCZRIwY2QyJQ-3" value="" style="shape=actor;whiteSpace=wrap;html=1;" parent="1" vertex="1">
          <mxGeometry x="110" y="334.17" width="40" height="60" as="geometry" />
        </mxCell>
        <mxCell id="gxNNFm00aCZRIwY2QyJQ-4" value="USER&lt;div&gt;&lt;br&gt;&lt;/div&gt;" style="text;html=1;align=center;verticalAlign=middle;whiteSpace=wrap;rounded=0;" parent="1" vertex="1">
          <mxGeometry x="100" y="408.75" width="60" height="30" as="geometry" />
        </mxCell>
        <mxCell id="gxNNFm00aCZRIwY2QyJQ-6" value="" style="endArrow=classic;html=1;rounded=0;" parent="1" edge="1">
          <mxGeometry width="50" height="50" relative="1" as="geometry">
            <mxPoint x="128.5" y="324" as="sourcePoint" />
            <mxPoint x="130" y="270" as="targetPoint" />
          </mxGeometry>
        </mxCell>
        <mxCell id="gxNNFm00aCZRIwY2QyJQ-12" value="API GATEWAY&lt;div&gt;&lt;br&gt;&lt;/div&gt;" style="text;html=1;align=center;verticalAlign=middle;whiteSpace=wrap;rounded=0;" parent="1" vertex="1">
          <mxGeometry x="249" y="420" width="60" height="30" as="geometry" />
        </mxCell>
        <mxCell id="gxNNFm00aCZRIwY2QyJQ-15" value="" style="outlineConnect=0;dashed=0;verticalLabelPosition=bottom;verticalAlign=top;align=center;html=1;shape=mxgraph.aws3.lambda;fillColor=#F58534;gradientColor=none;" parent="1" vertex="1">
          <mxGeometry x="416.5" y="501.75" width="76.5" height="93" as="geometry" />
        </mxCell>
        <mxCell id="gxNNFm00aCZRIwY2QyJQ-16" value="AWS Lambda &quot;Get Post&quot; function" style="text;html=1;align=center;verticalAlign=middle;whiteSpace=wrap;rounded=0;" parent="1" vertex="1">
          <mxGeometry x="425" y="230.00000000000003" width="60" height="30" as="geometry" />
        </mxCell>
        <mxCell id="gxNNFm00aCZRIwY2QyJQ-19" value="" style="outlineConnect=0;dashed=0;verticalLabelPosition=bottom;verticalAlign=top;align=center;html=1;shape=mxgraph.aws3.dynamo_db;fillColor=#2E73B8;gradientColor=none;" parent="1" vertex="1">
          <mxGeometry x="425" y="326.5" width="72" height="81" as="geometry" />
        </mxCell>
        <mxCell id="gxNNFm00aCZRIwY2QyJQ-21" value="DYNAMO DB" style="text;html=1;align=center;verticalAlign=middle;whiteSpace=wrap;rounded=0;" parent="1" vertex="1">
          <mxGeometry x="431" y="412.25" width="60" height="30" as="geometry" />
        </mxCell>
        <mxCell id="gxNNFm00aCZRIwY2QyJQ-30" value="" style="rounded=0;whiteSpace=wrap;html=1;fillColor=#EAEDED;fontSize=22;fontColor=#FFFFFF;strokeColor=none;labelBackgroundColor=none;" parent="1" vertex="1">
          <mxGeometry x="870" y="170" width="520" height="600" as="geometry" />
        </mxCell>
        <mxCell id="gxNNFm00aCZRIwY2QyJQ-31" value="1" style="rounded=1;whiteSpace=wrap;html=1;fillColor=#007CBD;strokeColor=none;fontColor=#FFFFFF;fontStyle=1;fontSize=22;labelBackgroundColor=none;" parent="1" vertex="1">
          <mxGeometry x="881.5" y="185.5" width="40" height="38" as="geometry" />
        </mxCell>
        <mxCell id="gxNNFm00aCZRIwY2QyJQ-32" value="2" style="rounded=1;whiteSpace=wrap;html=1;fillColor=#007CBD;strokeColor=none;fontColor=#FFFFFF;fontStyle=1;fontSize=22;labelBackgroundColor=none;" parent="1" vertex="1">
          <mxGeometry x="882.5" y="267.25" width="40" height="38" as="geometry" />
        </mxCell>
        <mxCell id="gxNNFm00aCZRIwY2QyJQ-33" value="3" style="rounded=1;whiteSpace=wrap;html=1;fillColor=#007CBD;strokeColor=none;fontColor=#FFFFFF;fontStyle=1;fontSize=22;labelBackgroundColor=none;" parent="1" vertex="1">
          <mxGeometry x="882.5" y="345.17" width="40" height="38" as="geometry" />
        </mxCell>
        <mxCell id="gxNNFm00aCZRIwY2QyJQ-34" value="4" style="rounded=1;whiteSpace=wrap;html=1;fillColor=#007CBD;strokeColor=none;fontColor=#FFFFFF;fontStyle=1;fontSize=22;labelBackgroundColor=none;" parent="1" vertex="1">
          <mxGeometry x="882.5" y="408.25" width="40" height="38" as="geometry" />
        </mxCell>
        <mxCell id="gxNNFm00aCZRIwY2QyJQ-35" value="5" style="rounded=1;whiteSpace=wrap;html=1;fillColor=#007CBD;strokeColor=none;fontColor=#FFFFFF;fontStyle=1;fontSize=22;labelBackgroundColor=none;" parent="1" vertex="1">
          <mxGeometry x="882.5" y="466.66999999999996" width="40" height="38" as="geometry" />
        </mxCell>
        <mxCell id="gxNNFm00aCZRIwY2QyJQ-36" value="6" style="rounded=1;whiteSpace=wrap;html=1;fillColor=#007CBD;strokeColor=none;fontColor=#FFFFFF;fontStyle=1;fontSize=22;labelBackgroundColor=none;" parent="1" vertex="1">
          <mxGeometry x="882.5" y="529.75" width="40" height="38" as="geometry" />
        </mxCell>
        <mxCell id="gxNNFm00aCZRIwY2QyJQ-37" value="The information is received by the RESTful web service exposed by Amazon API Gateway. This web service is invoked by a static webpage hosted on Amazon Simple Storage Service (Amazon S3)." style="text;html=1;align=left;verticalAlign=top;spacingTop=-4;fontSize=14;labelBackgroundColor=none;whiteSpace=wrap;" parent="1" vertex="1">
          <mxGeometry x="933" y="185" width="449" height="118" as="geometry" />
        </mxCell>
        <mxCell id="gxNNFm00aCZRIwY2QyJQ-38" value="Amazon API Gateway triggers an AWS Lambda function, New Post, which is responsible for initializing the process of generating MP3 files." style="text;html=1;align=left;verticalAlign=top;spacingTop=-4;fontSize=14;labelBackgroundColor=none;whiteSpace=wrap;" parent="1" vertex="1">
          <mxGeometry x="934.5" y="267.75" width="450" height="115" as="geometry" />
        </mxCell>
        <mxCell id="gxNNFm00aCZRIwY2QyJQ-39" value="The Lambda function inserts information about the post into an Amazon DynamoDB table, where information about all posts is stored." style="text;html=1;align=left;verticalAlign=top;spacingTop=-4;fontSize=14;labelBackgroundColor=none;whiteSpace=wrap;" parent="1" vertex="1">
          <mxGeometry x="934.5" y="343.67" width="450" height="117" as="geometry" />
        </mxCell>
        <mxCell id="gxNNFm00aCZRIwY2QyJQ-40" value="To run the whole process asynchronously, you use Amazon Simple Notification Service (Amazon SNS) to decouple the process of receiving information about new posts and starting their audio conversion." style="text;html=1;align=left;verticalAlign=top;spacingTop=-4;fontSize=14;labelBackgroundColor=none;whiteSpace=wrap;" parent="1" vertex="1">
          <mxGeometry x="934.5" y="408.75" width="450" height="121" as="geometry" />
        </mxCell>
        <mxCell id="gxNNFm00aCZRIwY2QyJQ-41" value="Another Lambda function, Convert to Audio, is subscribed to your SNS topic and is triggered whenever a new message appears (which means that a new post should be converted into an audio file)." style="text;html=1;align=left;verticalAlign=top;spacingTop=-4;fontSize=14;labelBackgroundColor=none;whiteSpace=wrap;" parent="1" vertex="1">
          <mxGeometry x="934" y="467.16999999999996" width="449" height="114" as="geometry" />
        </mxCell>
        <mxCell id="gxNNFm00aCZRIwY2QyJQ-42" value="&lt;div&gt;The Convert to Audio Lambda function uses Amazon Polly to convert the text into an audio file in the specified language (the same as the language of the text).&lt;/div&gt;" style="text;html=1;align=left;verticalAlign=top;whiteSpace=wrap;rounded=0;fontSize=14;" parent="1" vertex="1">
          <mxGeometry x="930" y="529.75" width="430" height="50" as="geometry" />
        </mxCell>
        <mxCell id="gxNNFm00aCZRIwY2QyJQ-43" value="7" style="rounded=1;whiteSpace=wrap;html=1;fillColor=#007CBD;strokeColor=none;fontColor=#FFFFFF;fontStyle=1;fontSize=22;labelBackgroundColor=none;" parent="1" vertex="1">
          <mxGeometry x="882.5" y="609.75" width="40" height="38" as="geometry" />
        </mxCell>
        <mxCell id="gxNNFm00aCZRIwY2QyJQ-44" value="&lt;div&gt;&lt;br&gt;&lt;/div&gt;&lt;div&gt;The new MP3 file is saved in a dedicated S3 bucket.&lt;/div&gt;" style="text;html=1;align=left;verticalAlign=top;whiteSpace=wrap;rounded=0;fontSize=14;" parent="1" vertex="1">
          <mxGeometry x="930" y="597.75" width="430" height="50" as="geometry" />
        </mxCell>
        <mxCell id="U3dB4rseCKYTatk1SGBs-1" value="" style="sketch=0;points=[[0,0,0],[0.25,0,0],[0.5,0,0],[0.75,0,0],[1,0,0],[0,1,0],[0.25,1,0],[0.5,1,0],[0.75,1,0],[1,1,0],[0,0.25,0],[0,0.5,0],[0,0.75,0],[1,0.25,0],[1,0.5,0],[1,0.75,0]];outlineConnect=0;fontColor=#232F3E;fillColor=#7AA116;strokeColor=#ffffff;dashed=0;verticalLabelPosition=bottom;verticalAlign=top;align=center;html=1;fontSize=12;fontStyle=0;aspect=fixed;shape=mxgraph.aws4.resourceIcon;resIcon=mxgraph.aws4.s3;" vertex="1" parent="1">
          <mxGeometry x="90" y="132.5" width="78" height="78" as="geometry" />
        </mxCell>
        <mxCell id="U3dB4rseCKYTatk1SGBs-2" value="" style="outlineConnect=0;dashed=0;verticalLabelPosition=bottom;verticalAlign=top;align=center;html=1;shape=mxgraph.aws3.lambda;fillColor=#F58534;gradientColor=none;" vertex="1" parent="1">
          <mxGeometry x="600" y="323.25" width="76.5" height="93" as="geometry" />
        </mxCell>
        <mxCell id="U3dB4rseCKYTatk1SGBs-3" value="" style="outlineConnect=0;dashed=0;verticalLabelPosition=bottom;verticalAlign=top;align=center;html=1;shape=mxgraph.aws3.lambda;fillColor=#F58534;gradientColor=none;" vertex="1" parent="1">
          <mxGeometry x="416.5" y="127" width="76.5" height="93" as="geometry" />
        </mxCell>
        <mxCell id="U3dB4rseCKYTatk1SGBs-4" value="" style="sketch=0;points=[[0,0,0],[0.25,0,0],[0.5,0,0],[0.75,0,0],[1,0,0],[0,1,0],[0.25,1,0],[0.5,1,0],[0.75,1,0],[1,1,0],[0,0.25,0],[0,0.5,0],[0,0.75,0],[1,0.25,0],[1,0.5,0],[1,0.75,0]];outlineConnect=0;fontColor=#232F3E;fillColor=#E7157B;strokeColor=#ffffff;dashed=0;verticalLabelPosition=bottom;verticalAlign=top;align=center;html=1;fontSize=12;fontStyle=0;aspect=fixed;shape=mxgraph.aws4.resourceIcon;resIcon=mxgraph.aws4.api_gateway;" vertex="1" parent="1">
          <mxGeometry x="240" y="330.75" width="78" height="78" as="geometry" />
        </mxCell>
        <mxCell id="U3dB4rseCKYTatk1SGBs-5" value="" style="sketch=0;points=[[0,0,0],[0.25,0,0],[0.5,0,0],[0.75,0,0],[1,0,0],[0,1,0],[0.25,1,0],[0.5,1,0],[0.75,1,0],[1,1,0],[0,0.25,0],[0,0.5,0],[0,0.75,0],[1,0.25,0],[1,0.5,0],[1,0.75,0]];outlineConnect=0;fontColor=#232F3E;fillColor=#01A88D;strokeColor=#ffffff;dashed=0;verticalLabelPosition=bottom;verticalAlign=top;align=center;html=1;fontSize=12;fontStyle=0;aspect=fixed;shape=mxgraph.aws4.resourceIcon;resIcon=mxgraph.aws4.polly;" vertex="1" parent="1">
          <mxGeometry x="600" y="127" width="78" height="78" as="geometry" />
        </mxCell>
        <mxCell id="U3dB4rseCKYTatk1SGBs-6" value="" style="sketch=0;points=[[0,0,0],[0.25,0,0],[0.5,0,0],[0.75,0,0],[1,0,0],[0,1,0],[0.25,1,0],[0.5,1,0],[0.75,1,0],[1,1,0],[0,0.25,0],[0,0.5,0],[0,0.75,0],[1,0.25,0],[1,0.5,0],[1,0.75,0]];outlineConnect=0;fontColor=#232F3E;fillColor=#7AA116;strokeColor=#ffffff;dashed=0;verticalLabelPosition=bottom;verticalAlign=top;align=center;html=1;fontSize=12;fontStyle=0;aspect=fixed;shape=mxgraph.aws4.resourceIcon;resIcon=mxgraph.aws4.s3;" vertex="1" parent="1">
          <mxGeometry x="760" y="330.75" width="78" height="78" as="geometry" />
        </mxCell>
        <mxCell id="U3dB4rseCKYTatk1SGBs-8" value="" style="sketch=0;points=[[0,0,0],[0.25,0,0],[0.5,0,0],[0.75,0,0],[1,0,0],[0,1,0],[0.25,1,0],[0.5,1,0],[0.75,1,0],[1,1,0],[0,0.25,0],[0,0.5,0],[0,0.75,0],[1,0.25,0],[1,0.5,0],[1,0.75,0]];outlineConnect=0;fontColor=#232F3E;fillColor=#E7157B;strokeColor=#ffffff;dashed=0;verticalLabelPosition=bottom;verticalAlign=top;align=center;html=1;fontSize=12;fontStyle=0;aspect=fixed;shape=mxgraph.aws4.resourceIcon;resIcon=mxgraph.aws4.sns;" vertex="1" parent="1">
          <mxGeometry x="608.25" y="512" width="78" height="78" as="geometry" />
        </mxCell>
        <mxCell id="U3dB4rseCKYTatk1SGBs-14" value="" style="endArrow=classic;html=1;rounded=0;" edge="1" parent="1">
          <mxGeometry width="50" height="50" relative="1" as="geometry">
            <mxPoint x="280" y="320" as="sourcePoint" />
            <mxPoint x="410" y="178.5" as="targetPoint" />
            <Array as="points">
              <mxPoint x="280" y="179" />
            </Array>
          </mxGeometry>
        </mxCell>
        <mxCell id="U3dB4rseCKYTatk1SGBs-16" value="" style="endArrow=classic;html=1;rounded=0;exitX=0.5;exitY=1;exitDx=0;exitDy=0;" edge="1" parent="1" source="gxNNFm00aCZRIwY2QyJQ-12">
          <mxGeometry width="50" height="50" relative="1" as="geometry">
            <mxPoint x="281" y="553.21" as="sourcePoint" />
            <mxPoint x="411" y="553.21" as="targetPoint" />
            <Array as="points">
              <mxPoint x="279" y="553" />
            </Array>
          </mxGeometry>
        </mxCell>
        <mxCell id="U3dB4rseCKYTatk1SGBs-17" value="" style="endArrow=classic;html=1;rounded=0;" edge="1" parent="1">
          <mxGeometry width="50" height="50" relative="1" as="geometry">
            <mxPoint x="168" y="369.25" as="sourcePoint" />
            <mxPoint x="228" y="369.58000000000004" as="targetPoint" />
          </mxGeometry>
        </mxCell>
        <mxCell id="U3dB4rseCKYTatk1SGBs-18" value="" style="endArrow=classic;html=1;rounded=0;" edge="1" parent="1">
          <mxGeometry width="50" height="50" relative="1" as="geometry">
            <mxPoint x="460.38" y="314.75" as="sourcePoint" />
            <mxPoint x="462" y="280" as="targetPoint" />
          </mxGeometry>
        </mxCell>
        <mxCell id="U3dB4rseCKYTatk1SGBs-19" value="" style="endArrow=classic;html=1;rounded=0;entryX=0.75;entryY=1;entryDx=0;entryDy=0;" edge="1" parent="1">
          <mxGeometry width="50" height="50" relative="1" as="geometry">
            <mxPoint x="459" y="490" as="sourcePoint" />
            <mxPoint x="459.25" y="442.25" as="targetPoint" />
          </mxGeometry>
        </mxCell>
        <mxCell id="U3dB4rseCKYTatk1SGBs-20" value="" style="endArrow=classic;html=1;rounded=0;" edge="1" parent="1">
          <mxGeometry width="50" height="50" relative="1" as="geometry">
            <mxPoint x="590" y="367" as="sourcePoint" />
            <mxPoint x="500" y="366.5" as="targetPoint" />
          </mxGeometry>
        </mxCell>
        <mxCell id="U3dB4rseCKYTatk1SGBs-21" value="" style="endArrow=classic;html=1;rounded=0;" edge="1" parent="1">
          <mxGeometry width="50" height="50" relative="1" as="geometry">
            <mxPoint x="640" y="317.25" as="sourcePoint" />
            <mxPoint x="640" y="240" as="targetPoint" />
          </mxGeometry>
        </mxCell>
        <mxCell id="U3dB4rseCKYTatk1SGBs-22" value="" style="endArrow=classic;html=1;rounded=0;" edge="1" parent="1">
          <mxGeometry width="50" height="50" relative="1" as="geometry">
            <mxPoint x="640" y="460" as="sourcePoint" />
            <mxPoint x="638.5" y="501.75" as="targetPoint" />
          </mxGeometry>
        </mxCell>
        <mxCell id="U3dB4rseCKYTatk1SGBs-23" value="" style="endArrow=classic;html=1;rounded=0;" edge="1" parent="1">
          <mxGeometry width="50" height="50" relative="1" as="geometry">
            <mxPoint x="690" y="366.5" as="sourcePoint" />
            <mxPoint x="760" y="366.5" as="targetPoint" />
          </mxGeometry>
        </mxCell>
        <mxCell id="U3dB4rseCKYTatk1SGBs-24" value="1" style="rounded=1;whiteSpace=wrap;html=1;fillColor=#007CBD;strokeColor=none;fontColor=#FFFFFF;fontStyle=1;fontSize=22;labelBackgroundColor=none;" vertex="1" parent="1">
          <mxGeometry x="140" y="280" width="40" height="38" as="geometry" />
        </mxCell>
        <mxCell id="U3dB4rseCKYTatk1SGBs-25" value="1" style="rounded=1;whiteSpace=wrap;html=1;fillColor=#007CBD;strokeColor=none;fontColor=#FFFFFF;fontStyle=1;fontSize=22;labelBackgroundColor=none;" vertex="1" parent="1">
          <mxGeometry x="180" y="382.75" width="40" height="38" as="geometry" />
        </mxCell>
        <mxCell id="U3dB4rseCKYTatk1SGBs-26" value="2" style="rounded=1;whiteSpace=wrap;html=1;fillColor=#007CBD;strokeColor=none;fontColor=#FFFFFF;fontStyle=1;fontSize=22;labelBackgroundColor=none;" vertex="1" parent="1">
          <mxGeometry x="318" y="132.5" width="40" height="38" as="geometry" />
        </mxCell>
        <mxCell id="U3dB4rseCKYTatk1SGBs-27" value="2" style="rounded=1;whiteSpace=wrap;html=1;fillColor=#007CBD;strokeColor=none;fontColor=#FFFFFF;fontStyle=1;fontSize=22;labelBackgroundColor=none;" vertex="1" parent="1">
          <mxGeometry x="318" y="504.67" width="40" height="38" as="geometry" />
        </mxCell>
        <mxCell id="U3dB4rseCKYTatk1SGBs-28" value="3" style="rounded=1;whiteSpace=wrap;html=1;fillColor=#007CBD;strokeColor=none;fontColor=#FFFFFF;fontStyle=1;fontSize=22;labelBackgroundColor=none;" vertex="1" parent="1">
          <mxGeometry x="470" y="280" width="40" height="38" as="geometry" />
        </mxCell>
        <mxCell id="U3dB4rseCKYTatk1SGBs-29" value="3" style="rounded=1;whiteSpace=wrap;html=1;fillColor=#007CBD;strokeColor=none;fontColor=#FFFFFF;fontStyle=1;fontSize=22;labelBackgroundColor=none;" vertex="1" parent="1">
          <mxGeometry x="470" y="450.25" width="40" height="38" as="geometry" />
        </mxCell>
        <mxCell id="U3dB4rseCKYTatk1SGBs-30" value="4" style="rounded=1;whiteSpace=wrap;html=1;fillColor=#007CBD;strokeColor=none;fontColor=#FFFFFF;fontStyle=1;fontSize=22;labelBackgroundColor=none;" vertex="1" parent="1">
          <mxGeometry x="520" y="512" width="40" height="38" as="geometry" />
        </mxCell>
        <mxCell id="U3dB4rseCKYTatk1SGBs-31" value="5" style="rounded=1;whiteSpace=wrap;html=1;fillColor=#007CBD;strokeColor=none;fontColor=#FFFFFF;fontStyle=1;fontSize=22;labelBackgroundColor=none;" vertex="1" parent="1">
          <mxGeometry x="650" y="460.67" width="40" height="38" as="geometry" />
        </mxCell>
        <mxCell id="U3dB4rseCKYTatk1SGBs-32" value="" style="endArrow=classic;html=1;rounded=0;" edge="1" parent="1">
          <mxGeometry width="50" height="50" relative="1" as="geometry">
            <mxPoint x="500" y="554.25" as="sourcePoint" />
            <mxPoint x="590" y="554.58" as="targetPoint" />
          </mxGeometry>
        </mxCell>
        <mxCell id="U3dB4rseCKYTatk1SGBs-34" value="6" style="rounded=1;whiteSpace=wrap;html=1;fillColor=#007CBD;strokeColor=none;fontColor=#FFFFFF;fontStyle=1;fontSize=22;labelBackgroundColor=none;" vertex="1" parent="1">
          <mxGeometry x="650" y="260" width="40" height="38" as="geometry" />
        </mxCell>
        <mxCell id="U3dB4rseCKYTatk1SGBs-36" value="7" style="rounded=1;whiteSpace=wrap;html=1;fillColor=#007CBD;strokeColor=none;fontColor=#FFFFFF;fontStyle=1;fontSize=22;labelBackgroundColor=none;" vertex="1" parent="1">
          <mxGeometry x="700" y="369.5" width="40" height="38" as="geometry" />
        </mxCell>
        <mxCell id="U3dB4rseCKYTatk1SGBs-37" value="8" style="rounded=1;whiteSpace=wrap;html=1;fillColor=#007CBD;strokeColor=none;fontColor=#FFFFFF;fontStyle=1;fontSize=22;labelBackgroundColor=none;" vertex="1" parent="1">
          <mxGeometry x="530" y="320" width="40" height="38" as="geometry" />
        </mxCell>
        <mxCell id="U3dB4rseCKYTatk1SGBs-38" value="Amazon S3 (static web content)" style="text;html=1;align=center;verticalAlign=middle;whiteSpace=wrap;rounded=0;" vertex="1" parent="1">
          <mxGeometry x="99" y="220" width="60" height="30" as="geometry" />
        </mxCell>
        <mxCell id="U3dB4rseCKYTatk1SGBs-41" value="AWS Lambda &quot;New Post&quot; function" style="text;html=1;align=center;verticalAlign=middle;whiteSpace=wrap;rounded=0;" vertex="1" parent="1">
          <mxGeometry x="431" y="609.75" width="60" height="30" as="geometry" />
        </mxCell>
        <mxCell id="U3dB4rseCKYTatk1SGBs-42" value="Amazon SNS" style="text;html=1;align=center;verticalAlign=middle;whiteSpace=wrap;rounded=0;" vertex="1" parent="1">
          <mxGeometry x="608.25" y="594.75" width="60" height="30" as="geometry" />
        </mxCell>
        <mxCell id="U3dB4rseCKYTatk1SGBs-43" value="Amazon Polly" style="text;html=1;align=center;verticalAlign=middle;whiteSpace=wrap;rounded=0;" vertex="1" parent="1">
          <mxGeometry x="609" y="205" width="60" height="30" as="geometry" />
        </mxCell>
        <mxCell id="U3dB4rseCKYTatk1SGBs-44" value="&quot;Convert to audio&quot; function" style="text;html=1;align=center;verticalAlign=middle;whiteSpace=wrap;rounded=0;" vertex="1" parent="1">
          <mxGeometry x="608.25" y="420" width="60" height="30" as="geometry" />
        </mxCell>
        <mxCell id="U3dB4rseCKYTatk1SGBs-45" value="Amazon S3 Store MP3 files" style="text;html=1;align=center;verticalAlign=middle;whiteSpace=wrap;rounded=0;" vertex="1" parent="1">
          <mxGeometry x="769" y="416.25" width="60" height="30" as="geometry" />
        </mxCell>
        <mxCell id="U3dB4rseCKYTatk1SGBs-46" value="8" style="rounded=1;whiteSpace=wrap;html=1;fillColor=#007CBD;strokeColor=none;fontColor=#FFFFFF;fontStyle=1;fontSize=22;labelBackgroundColor=none;" vertex="1" parent="1">
          <mxGeometry x="882.5" y="680" width="40" height="38" as="geometry" />
        </mxCell>
        <mxCell id="U3dB4rseCKYTatk1SGBs-47" value="Information about the post is updated in the DynamoDB table. The URL to the audio file stored in the S3 bucket is saved with the previously stored data." style="text;whiteSpace=wrap;fontSize=14;align=left;" vertex="1" parent="1">
          <mxGeometry x="930" y="670" width="450" height="40" as="geometry" />
        </mxCell>
      </root>
    </mxGraphModel>
  </diagram>
</mxfile>
